# xmcd CD database file
#
# Track frame offsets:
#	150
#	16970
#	39934
#	58420
#	79565
#	98644
#	114328
#	135745
#	157740
#	177079
#	195622
#	211760
#	232800
#	249208
#	267364
#	280270
#	299093
#	320215
#	333386
#
# Disc length: 4681 seconds
#
# Revision: 1
# Processed by: cddbd v1.5.2PL0 Copyright (c) Steve Scherf et al.
# Submitted via: CDex 1.51
#
DISCID=05124713
DTITLE=Various Artist - ZM-POPBOX-3-Disc-1
DYEAR=1900
DGENRE=Blues
TTITLE0=Jay Z Ft Beyonce - 03 Bonnie And Clyde
TTITLE1=Bill Medley and Jennifer Warnes - I've Had The Time Of My Life
TTITLE2=Take That - A Million Love Songs
TTITLE3=Coldplay - A Sky Full Of Stars
TTITLE4=Aladdin - A Whole New World
TTITLE5=Meghan Trainor - All About The Bass
TTITLE6=John Legend - All Of Me
TTITLE7=Chicago - All That Jazz(ZM)
TTITLE8=Nico and Vinz - Am I Wrong
TTITLE9=Jungle Book - Bare Necessites
TTITLE10=One Direction - Best Song Ever
TTITLE11=Alannah Myles - Black Velvet
TTITLE12=George Ezra - Budapest
TTITLE13=Ellie Goulding - Burn
TTITLE14=Mamas And The Papas - California Dreamin'
TTITLE15=Lion King - Can You Feel The Love Tonight
TTITLE16=OneRepublic - Counting Stars
TTITLE17=Patsy Cline - Crazy
TTITLE18=Cheryl Cole Ft Tinie Tempah - Crazy Stupid Love
EXTD=
EXTT0=
EXTT1=
EXTT2=
EXTT3=
EXTT4=
EXTT5=
EXTT6=
EXTT7=
EXTT8=
EXTT9=
EXTT10=
EXTT11=
EXTT12=
EXTT13=
EXTT14=
EXTT15=
EXTT16=
EXTT17=
EXTT18=
PLAYORDER=
